<svg xmlns="http://www.w3.org/2000/svg" xmlns:xlink="http://www.w3.org/1999/xlink" width="1000" zoomAndPan="magnify" viewBox="0 0 750 374.999991" height="500" preserveAspectRatio="xMidYMid meet" version="1.0"><defs><filter x="0%" y="0%" width="100%" height="100%" id="2226b94376"><feColorMatrix values="0 0 0 0 1 0 0 0 0 1 0 0 0 0 1 0 0 0 1 0" color-interpolation-filters="sRGB"/></filter><g/><clipPath id="a5832f5fdf"><path d="M 39.757812 151.359375 L 136.074219 151.359375 L 136.074219 247.671875 L 39.757812 247.671875 Z M 39.757812 151.359375 " clip-rule="nonzero"/></clipPath><clipPath id="4afcfd9c73"><path d="M 87.917969 151.359375 C 61.320312 151.359375 39.757812 172.917969 39.757812 199.515625 C 39.757812 226.113281 61.320312 247.671875 87.917969 247.671875 C 114.511719 247.671875 136.074219 226.113281 136.074219 199.515625 C 136.074219 172.917969 114.511719 151.359375 87.917969 151.359375 Z M 87.917969 151.359375 " clip-rule="nonzero"/></clipPath><clipPath id="aad086395f"><path d="M 92 173 L 155 173 L 155 225.496094 L 92 225.496094 Z M 92 173 " clip-rule="nonzero"/></clipPath><clipPath id="544425a57a"><path d="M 82 152.78125 L 134 152.78125 L 134 205 L 82 205 Z M 82 152.78125 " clip-rule="nonzero"/></clipPath><mask id="ef710a875a"><g filter="url(#2226b94376)"><rect x="-75" width="900" fill="#000000" y="-37.499999" height="449.999989" fill-opacity="0.47"/></g></mask><clipPath id="5f471bebc5"><path d="M 17.1875 17.144531 L 111.800781 17.144531 L 111.800781 111.757812 L 17.1875 111.757812 Z M 17.1875 17.144531 " clip-rule="nonzero"/></clipPath><clipPath id="09c8b19337"><path d="M 64.496094 17.144531 C 38.367188 17.144531 17.1875 38.324219 17.1875 64.449219 C 17.1875 90.578125 38.367188 111.757812 64.496094 111.757812 C 90.621094 111.757812 111.800781 90.578125 111.800781 64.449219 C 111.800781 38.324219 90.621094 17.144531 64.496094 17.144531 Z M 64.496094 17.144531 " clip-rule="nonzero"/></clipPath><clipPath id="3647f4f599"><rect x="0" width="129" y="0" height="129"/></clipPath><clipPath id="7e49005326"><path d="M 72.238281 124.328125 L 99.269531 124.328125 L 99.269531 151.359375 L 72.238281 151.359375 Z M 72.238281 124.328125 " clip-rule="nonzero"/></clipPath><clipPath id="7ee63a919c"><path d="M 85.753906 124.328125 C 78.289062 124.328125 72.238281 130.378906 72.238281 137.84375 C 72.238281 145.308594 78.289062 151.359375 85.753906 151.359375 C 93.21875 151.359375 99.269531 145.308594 99.269531 137.84375 C 99.269531 130.378906 93.21875 124.328125 85.753906 124.328125 Z M 85.753906 124.328125 " clip-rule="nonzero"/></clipPath><clipPath id="9d24003c7c"><path d="M 19.9375 189.691406 L 77.898438 189.691406 L 77.898438 247.652344 L 19.9375 247.652344 Z M 19.9375 189.691406 " clip-rule="nonzero"/></clipPath><clipPath id="eb29bb599d"><path d="M 48.925781 189.691406 C 32.914062 189.691406 19.9375 202.671875 19.9375 218.679688 C 19.9375 234.691406 32.914062 247.667969 48.925781 247.667969 C 64.933594 247.667969 77.914062 234.691406 77.914062 218.679688 C 77.914062 202.671875 64.933594 189.691406 48.925781 189.691406 Z M 48.925781 189.691406 " clip-rule="nonzero"/></clipPath></defs><g clip-path="url(#a5832f5fdf)"><g clip-path="url(#4afcfd9c73)"><path fill="#7ed957" d="M 39.757812 151.359375 L 136.074219 151.359375 L 136.074219 247.671875 L 39.757812 247.671875 Z M 39.757812 151.359375 " fill-opacity="1" fill-rule="nonzero"/></g></g><g clip-path="url(#aad086395f)"><path fill="#000000" d="M 114.449219 225.433594 C 108.878906 225.433594 103.308594 225.464844 97.734375 225.417969 C 95.582031 225.402344 93.75 223.996094 93.140625 222.117188 C 92.457031 220.011719 93 217.683594 94.820312 216.546875 C 95.847656 215.902344 97.230469 215.574219 98.457031 215.5625 C 108.5 215.480469 118.539062 215.550781 128.582031 215.5 C 136.402344 215.457031 142.585938 210.253906 144.132812 202.550781 C 146.035156 193.082031 138.824219 183.976562 129.195312 183.828125 C 122.261719 183.71875 115.332031 183.804688 108.398438 183.796875 C 106.265625 183.792969 104.664062 182.847656 103.6875 180.925781 C 102.8125 179.203125 102.816406 177.316406 104.128906 176 C 105.183594 174.941406 106.816406 173.878906 108.210938 173.855469 C 115.914062 173.722656 123.640625 173.539062 131.316406 174.078125 C 142.269531 174.847656 151.375 183.261719 153.75 194.035156 C 157.277344 210.058594 145.320312 225.253906 129.019531 225.429688 C 124.167969 225.476562 119.308594 225.433594 114.449219 225.433594 Z M 114.449219 225.433594 " fill-opacity="1" fill-rule="nonzero"/></g><g clip-path="url(#544425a57a)"><path fill="#000000" d="M 117.660156 204.261719 C 113.132812 204.261719 108.550781 204.714844 104.089844 204.171875 C 93.183594 202.839844 83.773438 192.738281 82.625 181.710938 C 81.402344 169.941406 88.25 158.699219 98.929688 154.632812 C 103.746094 152.796875 108.699219 152.785156 113.675781 152.980469 C 116.328125 153.082031 118.25 155.390625 118.230469 157.949219 C 118.210938 160.503906 116.28125 162.6875 113.644531 162.917969 C 111.839844 163.074219 110.019531 162.972656 108.203125 162.988281 C 99.457031 163.054688 92.519531 169.667969 92.414062 178.453125 C 92.308594 187.484375 99.089844 194.152344 107.242188 194.5 C 113.839844 194.777344 120.457031 194.589844 127.066406 194.617188 C 127.84375 194.621094 128.625 194.617188 129.390625 194.71875 C 132.003906 195.074219 133.90625 197.339844 133.753906 199.851562 C 133.59375 202.40625 131.519531 204.539062 128.9375 204.589844 C 125.183594 204.664062 121.421875 204.609375 117.664062 204.609375 C 117.664062 204.492188 117.664062 204.375 117.660156 204.261719 Z M 117.660156 204.261719 " fill-opacity="1" fill-rule="nonzero"/></g><g mask="url(#ef710a875a)"><g transform="matrix(1, 0, 0, 1, 9, 124)"><g clip-path="url(#3647f4f599)"><g clip-path="url(#5f471bebc5)"><g clip-path="url(#09c8b19337)"><path stroke-linecap="butt" transform="matrix(1.053825, 0, 0, 1.053825, 17.188735, 17.142711)" fill="none" stroke-linejoin="miter" d="M 44.891101 0.00172769 C 20.096748 0.00172769 -0.00117173 20.099647 -0.00117173 44.890293 C -0.00117173 69.684646 20.096748 89.782566 44.891101 89.782566 C 69.681747 89.782566 89.779666 69.684646 89.779666 44.890293 C 89.779666 20.099647 69.681747 0.00172769 44.891101 0.00172769 Z M 44.891101 0.00172769 " stroke="#85bb65" stroke-width="7.116931" stroke-opacity="1" stroke-miterlimit="4"/></g></g></g></g></g><g clip-path="url(#7e49005326)"><g clip-path="url(#7ee63a919c)"><path fill="#ff3131" d="M 72.238281 124.328125 L 99.269531 124.328125 L 99.269531 151.359375 L 72.238281 151.359375 Z M 72.238281 124.328125 " fill-opacity="1" fill-rule="nonzero"/></g></g><path stroke-linecap="round" transform="matrix(0, 1.053825, -1.053825, 0, 80.280201, 166.647515)" fill="none" stroke-linejoin="miter" d="M 4.000443 3.998572 L 60.998913 3.998572 " stroke="#ff3131" stroke-width="8" stroke-opacity="1" stroke-miterlimit="4"/><g clip-path="url(#9d24003c7c)"><g clip-path="url(#eb29bb599d)"><path stroke-linecap="butt" transform="matrix(1.053825, 0, 0, 1.053825, 19.936822, 189.692054)" fill="none" stroke-linejoin="miter" d="M 27.508326 -0.000614612 C 12.314418 -0.000614612 0.000643057 12.316867 0.000643057 27.507069 C 0.000643057 42.700977 12.314418 55.014752 27.508326 55.014752 C 42.698528 55.014752 55.01601 42.700977 55.01601 27.507069 C 55.01601 12.316867 42.698528 -0.000614612 27.508326 -0.000614612 Z M 27.508326 -0.000614612 " stroke="#ff5757" stroke-width="22.774181" stroke-opacity="1" stroke-miterlimit="4"/></g></g><g fill="#000000" fill-opacity="1"><g transform="translate(157.705472, 217.883114)"><g><path d="M 47.871094 -39.585938 C 47.871094 -50.265625 39.125 -58.734375 28.632812 -58.734375 L 9.390625 -58.734375 C 8.46875 -58.734375 7.363281 -58.089844 7.363281 -56.800781 L 7.363281 -2.023438 C 7.363281 -0.921875 8.285156 0 9.390625 0 L 28.632812 0 C 39.3125 0 47.871094 -8.652344 47.871094 -19.242188 Z M 18.597656 -9.023438 C 17.308594 -9.023438 16.570312 -10.035156 16.570312 -11.140625 L 16.570312 -47.6875 C 16.570312 -48.515625 17.125 -49.714844 18.597656 -49.714844 L 28.632812 -49.714844 C 34.15625 -49.714844 38.757812 -45.109375 38.757812 -39.585938 L 38.757812 -19.242188 C 38.757812 -13.71875 34.246094 -9.023438 28.632812 -9.023438 Z M 18.597656 -9.023438 "/></g></g></g><g fill="#000000" fill-opacity="1"><g transform="translate(212.942463, 217.883114)"><g><path d="M 27.617188 0.09375 C 43.085938 0.09375 51.921875 -13.257812 51.921875 -29.277344 C 51.921875 -45.386719 43.085938 -58.734375 27.617188 -58.734375 C 12.152344 -58.734375 3.3125 -45.386719 3.3125 -29.277344 C 3.3125 -13.257812 12.152344 0.09375 27.617188 0.09375 Z M 27.617188 -9.023438 C 17.03125 -9.023438 12.335938 -18.964844 12.335938 -29.367188 C 12.335938 -39.769531 17.125 -49.621094 27.617188 -49.621094 C 38.113281 -49.621094 42.902344 -39.957031 42.902344 -29.367188 C 42.902344 -18.78125 38.113281 -9.023438 27.617188 -9.023438 Z M 27.617188 -9.023438 "/></g></g></g><g fill="#000000" fill-opacity="1"><g transform="translate(268.179454, 217.883114)"><g><path d="M 44.191406 -7.179688 C 44.191406 -7.917969 43.636719 -9.207031 42.164062 -9.207031 L 18.414062 -9.207031 C 17.125 -9.207031 16.480469 -10.125 16.480469 -11.140625 L 16.480469 -56.710938 C 16.480469 -57.816406 15.558594 -58.734375 14.453125 -58.734375 L 9.390625 -58.734375 C 8.652344 -58.734375 7.363281 -58 7.363281 -56.710938 L 7.363281 -2.117188 C 7.363281 -0.738281 8.652344 0 9.390625 0 L 42.164062 0 C 43.269531 0 44.191406 -1.011719 44.191406 -2.117188 Z M 44.191406 -7.179688 "/></g></g></g><g fill="#000000" fill-opacity="1"><g transform="translate(316.97212, 217.883114)"><g><path d="M 44.191406 -7.179688 C 44.191406 -7.917969 43.636719 -9.207031 42.164062 -9.207031 L 18.414062 -9.207031 C 17.125 -9.207031 16.480469 -10.125 16.480469 -11.140625 L 16.480469 -56.710938 C 16.480469 -57.816406 15.558594 -58.734375 14.453125 -58.734375 L 9.390625 -58.734375 C 8.652344 -58.734375 7.363281 -58 7.363281 -56.710938 L 7.363281 -2.117188 C 7.363281 -0.738281 8.652344 0 9.390625 0 L 42.164062 0 C 43.269531 0 44.191406 -1.011719 44.191406 -2.117188 Z M 44.191406 -7.179688 "/></g></g></g><g fill="#000000" fill-opacity="1"><g transform="translate(365.764786, 217.883114)"><g><path d="M 46.125 0 C 47.042969 0 48.148438 -1.011719 48.148438 -2.023438 C 48.148438 -2.210938 48.148438 -2.394531 48.054688 -2.667969 L 33.417969 -57.261719 C 33.234375 -58.089844 32.3125 -58.734375 31.484375 -58.734375 L 19.515625 -58.734375 C 18.503906 -58.734375 17.769531 -58.089844 17.582031 -57.261719 L 2.855469 -2.667969 C 2.761719 -2.394531 2.761719 -2.300781 2.761719 -2.117188 C 2.761719 -1.105469 3.589844 0 4.878906 0 L 10.035156 0 C 11.046875 0 11.785156 -0.644531 12.058594 -1.566406 L 14.820312 -11.691406 C 15.007812 -12.613281 15.742188 -13.257812 16.664062 -13.257812 L 34.246094 -13.257812 C 35.261719 -13.257812 35.996094 -12.613281 36.179688 -11.691406 L 38.941406 -1.566406 C 39.21875 -0.644531 39.957031 0 40.875 0 Z M 32.683594 -24.855469 C 32.773438 -24.671875 32.773438 -24.398438 32.773438 -24.304688 C 32.773438 -23.292969 31.945312 -22.277344 30.839844 -22.277344 L 20.160156 -22.277344 C 19.058594 -22.277344 18.226562 -23.292969 18.226562 -24.304688 C 18.226562 -24.398438 18.226562 -24.671875 18.320312 -24.855469 L 23.476562 -44.375 C 23.753906 -45.292969 24.582031 -45.9375 25.5 -45.9375 C 26.421875 -45.9375 27.25 -45.292969 27.527344 -44.375 Z M 32.683594 -24.855469 "/></g></g></g><g fill="#000000" fill-opacity="1"><g transform="translate(416.674882, 217.883114)"><g><path d="M 18.597656 -35.445312 C 17.308594 -35.445312 16.570312 -36.457031 16.570312 -37.5625 L 16.570312 -47.597656 C 16.570312 -48.699219 17.308594 -49.714844 18.597656 -49.714844 L 31.667969 -49.714844 C 35.535156 -49.714844 38.757812 -46.492188 38.757812 -42.625 C 38.757812 -38.667969 35.535156 -35.445312 31.667969 -35.445312 Z M 45.753906 0 C 46.859375 0 47.871094 -0.921875 47.871094 -2.023438 C 47.871094 -2.578125 47.597656 -2.945312 47.320312 -3.3125 L 35.351562 -23.292969 C 34.984375 -23.84375 34.429688 -24.398438 34.429688 -25.039062 C 34.429688 -26.144531 35.445312 -26.882812 36.457031 -27.160156 C 43.085938 -29.089844 47.871094 -35.351562 47.871094 -42.625 C 47.871094 -51.554688 40.691406 -58.734375 31.667969 -58.734375 L 9.390625 -58.734375 C 8.378906 -58.734375 7.363281 -57.90625 7.363281 -56.800781 L 7.363281 -2.023438 C 7.363281 -0.738281 8.378906 0 9.390625 0 L 14.636719 0 C 15.742188 0 16.570312 -0.921875 16.570312 -2.023438 L 16.570312 -30.105469 C 16.570312 -30.933594 17.398438 -32.128906 18.6875 -32.128906 C 19.242188 -32.128906 19.792969 -31.855469 20.160156 -31.300781 L 37.652344 -0.738281 C 38.023438 -0.367188 38.574219 0 39.21875 0 Z M 45.753906 0 "/></g></g></g><g fill="#000000" fill-opacity="1"><g transform="translate(470.070633, 217.883114)"><g/></g></g><g fill="#000000" fill-opacity="1"><g transform="translate(497.689103, 217.883114)"><g><path d="M 44.925781 -16.109375 C 44.648438 -16.480469 44.191406 -16.664062 43.636719 -16.664062 C 42.992188 -16.664062 42.164062 -16.386719 41.886719 -15.652344 C 39.21875 -11.507812 34.617188 -8.929688 29.734375 -8.929688 C 18.871094 -8.929688 14.730469 -19.425781 14.730469 -29.367188 C 14.730469 -39.402344 19.148438 -49.714844 29.734375 -49.714844 C 34.617188 -49.714844 39.21875 -47.136719 41.886719 -42.992188 C 42.164062 -42.441406 42.71875 -42.074219 43.269531 -41.980469 C 44.003906 -41.980469 44.558594 -42.074219 44.925781 -42.53125 L 48.792969 -45.847656 C 49.253906 -46.214844 49.53125 -46.769531 49.53125 -47.320312 C 49.53125 -47.6875 49.34375 -48.148438 49.160156 -48.515625 C 44.742188 -55.054688 37.5625 -58.734375 29.921875 -58.734375 C 13.992188 -58.734375 5.617188 -45.109375 5.617188 -29.277344 C 5.617188 -13.625 14.175781 0.09375 29.828125 0.09375 C 37.5625 0.09375 44.742188 -3.773438 49.160156 -10.125 C 49.34375 -10.496094 49.53125 -10.957031 49.53125 -11.230469 C 49.53125 -11.785156 49.253906 -12.335938 48.792969 -12.796875 Z M 44.925781 -16.109375 "/></g></g></g><g fill="#000000" fill-opacity="1"><g transform="translate(551.08487, 217.883114)"><g><path d="M 49.4375 0 C 50.542969 0 51.554688 -0.921875 51.554688 -2.117188 L 51.554688 -56.710938 C 51.554688 -57.816406 50.542969 -58.734375 49.4375 -58.734375 L 44.375 -58.734375 C 43.636719 -58.734375 42.347656 -58 42.347656 -56.710938 L 42.347656 -24.304688 C 42.347656 -23.199219 41.613281 -22.277344 40.414062 -22.277344 C 39.769531 -22.277344 39.035156 -22.648438 38.667969 -23.199219 L 17.125 -57.816406 C 16.753906 -58.367188 16.019531 -58.734375 15.28125 -58.734375 L 9.390625 -58.734375 C 8.285156 -58.734375 7.363281 -57.816406 7.363281 -56.710938 L 7.363281 -2.117188 C 7.363281 -0.738281 8.378906 0 9.390625 0 L 14.453125 0 C 15.558594 0 16.386719 -1.011719 16.386719 -2.117188 L 16.386719 -34.429688 C 16.386719 -35.535156 17.308594 -36.457031 18.414062 -36.457031 C 19.058594 -36.457031 19.792969 -36.089844 20.160156 -35.535156 L 41.796875 -1.011719 C 42.164062 -0.460938 42.808594 0 43.453125 0 Z M 49.4375 0 "/></g></g></g><g fill="#000000" fill-opacity="1"><g transform="translate(610.004325, 217.883114)"><g><path d="M 25.59375 0 C 26.699219 0 27.527344 -0.921875 27.527344 -2.023438 L 27.527344 -47.597656 C 27.527344 -48.792969 28.539062 -49.714844 29.550781 -49.714844 L 41.242188 -49.714844 C 42.347656 -49.714844 43.269531 -50.632812 43.269531 -51.738281 L 43.269531 -56.800781 C 43.269531 -57.90625 42.257812 -58.734375 41.242188 -58.734375 L 4.789062 -58.734375 C 3.5 -58.734375 2.761719 -57.632812 2.761719 -56.800781 L 2.761719 -51.738281 C 2.761719 -50.726562 3.5 -49.714844 4.789062 -49.714844 L 16.386719 -49.714844 C 17.492188 -49.714844 18.414062 -48.792969 18.414062 -47.597656 L 18.414062 -2.023438 C 18.414062 -1.011719 19.148438 0 20.4375 0 Z M 25.59375 0 "/></g></g></g><g fill="#000000" fill-opacity="1"><g transform="translate(656.035165, 217.883114)"><g><path d="M 44.191406 -7.179688 C 44.191406 -7.917969 43.636719 -9.207031 42.164062 -9.207031 L 18.414062 -9.207031 C 17.125 -9.207031 16.480469 -10.125 16.480469 -11.140625 L 16.480469 -56.710938 C 16.480469 -57.816406 15.558594 -58.734375 14.453125 -58.734375 L 9.390625 -58.734375 C 8.652344 -58.734375 7.363281 -58 7.363281 -56.710938 L 7.363281 -2.117188 C 7.363281 -0.738281 8.652344 0 9.390625 0 L 42.164062 0 C 43.269531 0 44.191406 -1.011719 44.191406 -2.117188 Z M 44.191406 -7.179688 "/></g></g></g><g fill="#000000" fill-opacity="1"><g transform="translate(704.827832, 217.883114)"><g><path d="M 19.703125 -6.8125 C 19.703125 -10.679688 16.480469 -13.992188 12.613281 -13.992188 C 8.746094 -13.992188 5.523438 -10.679688 5.523438 -6.8125 C 5.523438 -2.855469 8.746094 0.277344 12.613281 0.277344 C 16.480469 0.277344 19.703125 -2.855469 19.703125 -6.8125 Z M 19.703125 -6.8125 "/></g></g></g></svg>