<svg xmlns="http://www.w3.org/2000/svg" xmlns:xlink="http://www.w3.org/1999/xlink" width="500" zoomAndPan="magnify" viewBox="0 0 375 374.999991" height="500" preserveAspectRatio="xMidYMid meet" version="1.0"><defs><filter x="0%" y="0%" width="100%" height="100%" id="5418a7b1bc"><feColorMatrix values="0 0 0 0 1 0 0 0 0 1 0 0 0 0 1 0 0 0 1 0" color-interpolation-filters="sRGB"/></filter><clipPath id="2e4157dae6"><path d="M 107.457031 130.984375 L 264.59375 130.984375 L 264.59375 288.117188 L 107.457031 288.117188 Z M 107.457031 130.984375 " clip-rule="nonzero"/></clipPath><clipPath id="ee59b79d19"><path d="M 186.023438 130.984375 C 142.632812 130.984375 107.457031 166.160156 107.457031 209.550781 C 107.457031 252.941406 142.632812 288.117188 186.023438 288.117188 C 229.414062 288.117188 264.59375 252.941406 264.59375 209.550781 C 264.59375 166.160156 229.414062 130.984375 186.023438 130.984375 Z M 186.023438 130.984375 " clip-rule="nonzero"/></clipPath><clipPath id="4774c58620"><path d="M 194 167 L 296 167 L 296 251.804688 L 194 251.804688 Z M 194 167 " clip-rule="nonzero"/></clipPath><clipPath id="09677d880d"><path d="M 177 133.304688 L 262 133.304688 L 262 218 L 177 218 Z M 177 133.304688 " clip-rule="nonzero"/></clipPath><mask id="99d04b6a0f"><g filter="url(#5418a7b1bc)"><rect x="-37.5" width="450" fill="#000000" y="-37.499999" height="449.999989" fill-opacity="0.47"/></g></mask><clipPath id="d718d3f941"><path d="M 17.316406 17.316406 L 171.6875 17.316406 L 171.6875 171.6875 L 17.316406 171.6875 Z M 17.316406 17.316406 " clip-rule="nonzero"/></clipPath><clipPath id="125d2ce446"><path d="M 94.5 17.316406 C 51.871094 17.316406 17.316406 51.871094 17.316406 94.5 C 17.316406 137.128906 51.871094 171.6875 94.5 171.6875 C 137.128906 171.6875 171.6875 137.128906 171.6875 94.5 C 171.6875 51.871094 137.128906 17.316406 94.5 17.316406 Z M 94.5 17.316406 " clip-rule="nonzero"/></clipPath><clipPath id="78eed0af13"><rect x="0" width="189" y="0" height="189"/></clipPath><clipPath id="6e2fbdd9b3"><path d="M 160.449219 86.882812 L 204.550781 86.882812 L 204.550781 130.984375 L 160.449219 130.984375 Z M 160.449219 86.882812 " clip-rule="nonzero"/></clipPath><clipPath id="d232b4bbfc"><path d="M 182.5 86.882812 C 170.320312 86.882812 160.449219 96.753906 160.449219 108.933594 C 160.449219 121.109375 170.320312 130.984375 182.5 130.984375 C 194.675781 130.984375 204.550781 121.109375 204.550781 108.933594 C 204.550781 96.753906 194.675781 86.882812 182.5 86.882812 Z M 182.5 86.882812 " clip-rule="nonzero"/></clipPath><clipPath id="5511466fec"><path d="M 75.113281 193.523438 L 169.613281 193.523438 L 169.613281 288.023438 L 75.113281 288.023438 Z M 75.113281 193.523438 " clip-rule="nonzero"/></clipPath><clipPath id="063ee5bac0"><path d="M 122.410156 193.523438 C 96.289062 193.523438 75.113281 214.699219 75.113281 240.820312 C 75.113281 266.941406 96.289062 288.117188 122.410156 288.117188 C 148.535156 288.117188 169.707031 266.941406 169.707031 240.820312 C 169.707031 214.699219 148.535156 193.523438 122.410156 193.523438 Z M 122.410156 193.523438 " clip-rule="nonzero"/></clipPath></defs><rect x="-37.5" width="450" fill="#ffffff" y="-37.499999" height="449.999989" fill-opacity="1"/><rect x="-37.5" width="450" fill="#ffffff" y="-37.499999" height="449.999989" fill-opacity="1"/><g clip-path="url(#2e4157dae6)"><g clip-path="url(#ee59b79d19)"><path fill="#7ed957" d="M 107.457031 130.984375 L 264.59375 130.984375 L 264.59375 288.117188 L 107.457031 288.117188 Z M 107.457031 130.984375 " fill-opacity="1" fill-rule="nonzero"/></g></g><g clip-path="url(#4774c58620)"><path fill="#000000" d="M 229.617188 251.699219 C 220.476562 251.699219 211.339844 251.75 202.191406 251.671875 C 198.664062 251.644531 195.660156 249.359375 194.65625 246.296875 C 193.535156 242.863281 194.429688 239.070312 197.414062 237.21875 C 199.101562 236.167969 201.371094 235.628906 203.382812 235.613281 C 219.859375 235.484375 236.332031 235.59375 252.808594 235.507812 C 265.644531 235.441406 275.789062 226.960938 278.328125 214.410156 C 281.449219 198.984375 269.621094 184.144531 253.816406 183.898438 C 242.441406 183.71875 231.066406 183.863281 219.695312 183.851562 C 216.195312 183.84375 213.566406 182.300781 211.960938 179.171875 C 210.527344 176.363281 210.53125 173.285156 212.6875 171.148438 C 214.421875 169.421875 217.097656 167.6875 219.386719 167.644531 C 232.023438 167.433594 244.707031 167.132812 257.296875 168.011719 C 275.265625 169.265625 290.210938 182.980469 294.105469 200.535156 C 299.894531 226.644531 280.277344 251.410156 253.53125 251.691406 C 245.566406 251.769531 237.59375 251.699219 229.617188 251.699219 Z M 229.617188 251.699219 " fill-opacity="1" fill-rule="nonzero"/></g><g clip-path="url(#09677d880d)"><path fill="#000000" d="M 234.894531 217.195312 C 227.464844 217.195312 219.945312 217.9375 212.625 217.050781 C 194.726562 214.882812 179.289062 198.421875 177.40625 180.449219 C 175.394531 161.269531 186.628906 142.953125 204.15625 136.324219 C 212.058594 133.335938 220.183594 133.3125 228.355469 133.628906 C 232.707031 133.800781 235.855469 137.558594 235.824219 141.726562 C 235.792969 145.890625 232.628906 149.449219 228.300781 149.824219 C 225.34375 150.078125 222.355469 149.917969 219.375 149.941406 C 205.023438 150.046875 193.640625 160.824219 193.46875 175.140625 C 193.289062 189.855469 204.414062 200.726562 217.796875 201.289062 C 228.621094 201.742188 239.480469 201.441406 250.324219 201.484375 C 251.597656 201.488281 252.882812 201.480469 254.140625 201.648438 C 258.425781 202.230469 261.546875 205.921875 261.292969 210.015625 C 261.035156 214.175781 257.632812 217.648438 253.394531 217.730469 C 247.230469 217.851562 241.0625 217.761719 234.898438 217.761719 C 234.898438 217.574219 234.898438 217.382812 234.894531 217.195312 Z M 234.894531 217.195312 " fill-opacity="1" fill-rule="nonzero"/></g><g mask="url(#99d04b6a0f)"><g transform="matrix(1, 0, 0, 1, 68, 97)"><g clip-path="url(#78eed0af13)"><g clip-path="url(#d718d3f941)"><g clip-path="url(#125d2ce446)"><path stroke-linecap="butt" transform="matrix(0.75, 0, 0, 0.75, 17.315026, 17.315183)" fill="none" stroke-linejoin="miter" d="M 102.913306 0.00163125 C 46.07476 0.00163125 0.00184052 46.074551 0.00184052 102.913096 C 0.00184052 159.751642 46.07476 205.82977 102.913306 205.82977 C 159.751851 205.82977 205.829979 159.751642 205.829979 102.913096 C 205.829979 46.074551 159.751851 0.00163125 102.913306 0.00163125 Z M 102.913306 0.00163125 " stroke="#85bb65" stroke-width="10" stroke-opacity="1" stroke-miterlimit="4"/></g></g></g></g></g><g clip-path="url(#6e2fbdd9b3)"><g clip-path="url(#d232b4bbfc)"><path fill="#ff3131" d="M 160.449219 86.882812 L 204.550781 86.882812 L 204.550781 130.984375 L 160.449219 130.984375 Z M 160.449219 86.882812 " fill-opacity="1" fill-rule="nonzero"/></g></g><path stroke-linecap="round" transform="matrix(0, 0.75, -0.75, 0, 173.448713, 155.915791)" fill="none" stroke-linejoin="miter" d="M 8.997697 8.999326 L 140.002913 8.999326 " stroke="#ff3131" stroke-width="18" stroke-opacity="1" stroke-miterlimit="4"/><g clip-path="url(#5511466fec)"><g clip-path="url(#063ee5bac0)"><path stroke-linecap="butt" transform="matrix(0.75, 0, 0, 0.75, 75.11502, 193.523586)" fill="none" stroke-linejoin="miter" d="M 63.060186 -0.000198656 C 28.232059 -0.000198656 -0.00231776 28.234178 -0.00231776 63.062305 C -0.00231776 97.890433 28.232059 126.12481 63.060186 126.12481 C 97.893522 126.12481 126.122691 97.890433 126.122691 63.062305 C 126.122691 28.234178 97.893522 -0.000198656 63.060186 -0.000198656 Z M 63.060186 -0.000198656 " stroke="#ff5757" stroke-width="32" stroke-opacity="1" stroke-miterlimit="4"/></g></g></svg>